<?xml version="1.0" encoding="UTF-8"?>
<svg id="Layer_1" data-name="Layer 1" xmlns="http://www.w3.org/2000/svg" xmlns:xlink="http://www.w3.org/1999/xlink" viewBox="0 0 128 128">
  <defs>
    <style>
      .cls-1 {
        fill: url(#linear-gradient);
      }

      .cls-2 {
        fill: #fff;
      }
    </style>
    <linearGradient id="linear-gradient" x1="27.18" y1="37.26" x2="100.81" y2="110.89" gradientUnits="userSpaceOnUse">
      <stop offset="0" stop-color="#5fa1de"/>
      <stop offset="1" stop-color="#215ec0"/>
    </linearGradient>
  </defs>
  <path class="cls-2" d="M82.34,30.57h0c-8.19-8.19-16.01-16-18.34-24.8-2.33,8.81-10.15,16.61-18.34,24.8-12.29,12.28-26.22,26.2-26.22,47.08-.01,24.61,19.93,44.57,44.54,44.58,24.61.01,44.57-19.93,44.58-44.54v-.04c0-20.87-13.93-34.79-26.22-47.08Z"/>
  <path class="cls-1" d="M84.01,27.52h0c-8.94-8.94-17.48-17.46-20.02-27.07-2.54,9.61-11.07,18.13-20.02,27.07-13.41,13.4-28.62,28.6-28.62,51.38-.01,26.86,21.75,48.65,48.61,48.66,26.86.01,48.65-21.75,48.66-48.61v-.04c0-22.78-15.21-37.98-28.62-51.38ZM40.55,90.23c-.08-.1-.16-.2-.24-.3-4.64-6.11-3.45-14.82,2.66-19.46l26.71-20.48c1.26-.96,3.04-.74,4.03.49.02.02.03.04.05.06.93,1.22.69,2.96-.53,3.89l-26.71,20.48c-.06.05-.12.09-.18.14-3.59,2.89-4.16,8.13-1.27,11.72,2.97,3.69,8.33,4.34,12.09,1.48l26.71-20.48c1.26-.96,3.04-.74,4.03.49.02.02.03.04.05.06.93,1.22.69,2.96-.53,3.89l-26.71,20.48c-6.28,4.77-15.21,3.68-20.16-2.46ZM94.96,81.06c-.1.08-.2.16-.3.24l-32.66,25.04c-.41.31-.49.89-.18,1.3,0,0,.01.01.02.02l5.27,6.61c.96,1.2.77,2.94-.42,3.91-.02.02-.04.03-.06.05-1.26.95-3.04.74-4.03-.49l-5.27-6.61c-2.25-2.79-1.81-6.87.98-9.11.05-.04.1-.08.15-.11l32.67-25.04c3.66-2.79,4.38-8.02,1.59-11.68-.05-.06-.09-.12-.14-.18l-.15-.18c-2.96-3.68-8.32-4.34-12.08-1.49l-26.91,20.63h0s-.37.29-.37.29c-1.26.96-3.04.74-4.03-.49-.96-1.2-.77-2.94.42-3.91.02-.02.04-.03.06-.05l27.29-20.92c3.66-2.79,4.36-8.03,1.57-11.69-.04-.06-.09-.11-.13-.17-2.97-3.69-8.33-4.34-12.09-1.48l-36.12,27.68c-1.26.95-3.04.74-4.03-.49-.96-1.2-.77-2.94.42-3.91.02-.02.04-.03.06-.05l36.12-27.68c6.28-4.77,15.21-3.68,20.16,2.46,2.79,3.47,3.75,8.06,2.58,12.35,4.5-.09,8.79,1.92,11.61,5.43l.15.19c4.81,5.98,3.86,14.72-2.11,19.53Z"/>
</svg>