<?xml version="1.0" encoding="UTF-8"?>
<svg id="Layer_1" xmlns="http://www.w3.org/2000/svg" xmlns:xlink="http://www.w3.org/1999/xlink" version="1.1" viewBox="0 0 638 150">
  <!-- Generator: Adobe Illustrator 29.4.0, SVG Export Plug-In . SVG Version: 2.1.0 Build 152)  -->
  <defs>
    <style>
      .st0 {
        fill: url(#linear-gradient);
      }

      .st1 {
        fill: #fff;
      }

      .st2 {
        fill: #f9f9f9;
      }
    </style>
    <linearGradient id="linear-gradient" x1="15.564" y1="105.762" x2="100.041" y2="21.285" gradientTransform="translate(0 150) scale(1 -1)" gradientUnits="userSpaceOnUse">
      <stop offset="0" stop-color="#65aced"/>
      <stop offset="1" stop-color="#2365cf"/>
    </linearGradient>
  </defs>
  <circle class="st1" cx="59.71" cy="92.378" r="50.373"/>
  <path class="st0" d="M80.766,33.06h0c-10.261-10.256-20.051-20.033-22.964-31.06-2.914,11.027-12.705,20.803-22.965,31.06C19.448,48.439,2,65.869,2,92.011c-.014,30.819,24.958,55.814,55.777,55.828s55.814-24.958,55.828-55.777v-.051c0-26.14-17.446-43.572-32.84-58.951h0ZM30.896,105.012c-.093-.115-.184-.232-.274-.35-5.325-7.007-3.961-17.004,3.046-22.329l30.646-23.492c1.441-1.096,3.493-.845,4.628.566.019.023.037.046.055.07,1.065,1.401.792,3.401-.609,4.466l-30.65,23.492c-.069.052-.137.105-.204.159-4.117,3.31-4.77,9.331-1.46,13.448,3.402,4.231,9.555,4.983,13.876,1.697l30.646-23.492c1.441-1.096,3.493-.845,4.628.566.019.023.037.046.055.07,1.065,1.401.792,3.401-.609,4.466l-30.65,23.492c-7.202,5.474-17.454,4.221-23.125-2.827v-.002ZM93.329,94.492c-.115.093-.232.184-.35.274l-37.477,28.724c-.467.354-.558,1.02-.203,1.487.006.008.012.016.019.024l6.049,7.583c1.104,1.371.887,3.378-.485,4.481-.023.019-.046.037-.07.055-1.44,1.094-3.49.843-4.624-.565l-6.049-7.579c-2.576-3.198-2.072-7.879,1.126-10.455.055-.045.112-.089.168-.132l37.478-28.728c4.205-3.198,5.021-9.199,1.823-13.404-.052-.069-.105-.136-.159-.204l-.169-.212c-3.398-4.226-9.542-4.982-13.864-1.707l-30.874,23.667-.009.007-.422.327c-1.441,1.096-3.493.845-4.628-.566-1.104-1.371-.887-3.378.485-4.481.023-.019.046-.037.07-.055l31.309-24c4.199-3.205,5.005-9.208,1.8-13.407-.049-.064-.099-.128-.149-.19-3.402-4.231-9.555-4.983-13.876-1.697l-41.438,31.762c-1.44,1.094-3.49.843-4.624-.565-1.104-1.371-.887-3.378.485-4.481.023-.019.046-.037.07-.055l41.438-31.762c7.202-5.476,17.455-4.223,23.125,2.827,3.201,3.977,4.303,9.247,2.964,14.173,5.166-.101,10.086,2.201,13.318,6.232l.169.216c5.518,6.856,4.433,16.888-2.423,22.405h-.003Z"/>
  <g>
    <path class="st2" d="M208.501,84.338c0,17.051-13.799,30.85-30.762,30.85h-23.994v-61.612h23.994c16.963,0,30.762,13.799,30.762,30.762ZM164.205,64.034v40.694h13.535c11.25,0,20.303-9.229,20.303-20.391,0-11.25-9.053-20.303-20.303-20.303h-13.535Z"/>
    <path class="st2" d="M242.519,69.571v10.459h-6.416c-3.867,0-8.086,2.373-8.086,7.031v28.125h-10.459v-45.616h10.459v4.658c2.021-2.9,4.658-4.658,8.086-4.658h6.416Z"/>
    <path class="st2" d="M291.74,115.187h-10.459v-4.57c-3.428,4.131-9.141,5.625-13.359,5.625-11.426,0-19.775-7.91-19.775-18.457v-27.071h10.459v23.907c0,9.404,5.186,12.305,10.635,12.305,7.031,0,12.041-5.361,12.041-13.447v-22.764h10.459v44.473h-.001Z"/>
    <path class="st2" d="M349.399,92.951c0,12.832-10.283,23.291-22.764,23.291-5.537,0-10.371-1.934-14.238-5.098v24.961h-10.459v-65.479h10.459v4.043c3.867-3.164,8.701-5.098,14.238-5.098,12.48,0,22.764,10.459,22.764,23.379h0ZM338.94,92.951c0-7.207-5.537-12.92-12.305-12.92-6.855,0-12.393,5.713-12.393,12.92,0,7.031,5.537,12.832,12.393,12.832,6.768,0,12.305-5.801,12.305-12.832Z"/>
    <path class="st2" d="M391.239,70.626h10.459v44.561h-10.459v-4.043c-3.867,3.164-8.701,5.098-14.238,5.098-12.48,0-22.764-10.459-22.764-23.379,0-12.832,10.283-23.292,22.764-23.292,5.537,0,10.371,1.934,14.238,5.098v-4.043ZM389.393,92.863c0-7.031-5.537-12.832-12.393-12.832-6.768,0-12.305,5.801-12.305,12.832,0,7.207,5.537,12.92,12.305,12.92,6.855,0,12.393-5.713,12.393-12.92Z"/>
    <path class="st2" d="M410.841,49.796h10.459v65.391h-10.459V49.796Z"/>
    <path class="st2" d="M514.731,115.187l-4.57-44.825-2.988,14.854-10.723,29.971h-13.359l-10.723-29.971-2.9-14.854-4.57,44.825h-10.547l6.24-61.612h11.602l17.578,49.219,17.578-49.219h11.602l6.24,61.612h-10.46Z"/>
    <path class="st2" d="M583.466,106.574c-5.625,5.977-13.447,9.58-22.236,9.58-17.227,0-31.025-14.15-31.025-31.729s13.799-31.817,31.025-31.817c8.789,0,16.611,3.604,22.236,9.58l-7.383,7.383c-3.779-4.131-8.965-6.504-14.854-6.504-11.338,0-20.566,9.492-20.566,21.358,0,11.777,9.229,21.357,20.566,21.357,5.889,0,11.074-2.461,14.854-6.592l7.383,7.383h0Z"/>
    <path class="st2" d="M635.501,73.175c0,11.866-8.613,19.688-24.521,19.688-3.955,0-7.031-.264-9.58-.615v22.939h-10.459v-61.612h24.961c10.898,0,19.6,8.789,19.6,19.6h0ZM625.042,73.175c0-4.922-3.955-9.141-9.141-9.141h-14.502v17.579c1.758.352,4.746.791,9.58.791,6.416,0,14.062-1.318,14.062-9.229h0Z"/>
  </g>
</svg>