<?xml version="1.0" encoding="utf-8"?>
<svg viewBox="0 0 2000 1000" xmlns="http://www.w3.org/2000/svg">
  <!-- First SVG (Drupal logo) -->
  <g transform="translate(0, 0)">
    <style type="text/css">
      .st0{fill:#009CDE;}
    </style>
    <path class="st0" d="M806.6,369.2c-0.6-1.1-1.1-1.7-2.2-2.8C750,305.3,672.8,218.7,617.2,157c-17.2-18.3-34.4-36.7-50.5-55.5
      c-3.9-4.4-7.2-8.9-11.1-13.3c-3.3-3.3-5-5.6-5-5.6h0.6c-18.9-22.2-33.9-47.2-44.4-73.9L504,2.6c0-0.6-0.6-0.6-1.1-1.1
      c-0.6,0-1.7-0.6-2.2-0.6H500c-1.1,0-1.7,0.6-2.2,0.6c-0.6,0.6-0.6,0.6-1.1,1.1l-2.8,6.1c-11.1,26.7-26.1,51.6-44.4,73.9h0.6
      c0,0-1.7,2.2-5,5.6c-3.9,4.4-7.2,8.9-11.1,13.3c-16.7,18.9-33.3,37.2-50.5,55.5C328,218.6,250.2,305.3,195.8,366.4
      c-0.6,1.1-1.1,1.7-2.2,2.8C-12,643,211.2,866.3,211.2,866.3h-0.6c66.1,76.6,159.9,123.8,260.5,131.1c8.9,1.1,18.3,1.7,28.3,1.7h0.6
      c9.4,0,18.9-0.6,28.3-1.7c101.1-7.2,194.4-54.4,260.5-131.1h-0.6C788.8,866.3,1012.1,643,806.6,369.2z M328.4,561.9l-5,7.8l-0.6,0.6
      c-37.8,45.5-60,94.4-67.2,142.7c-1.1,6.1-6.7,10-12.2,8.9c-3.9-0.6-6.7-3.3-8.3-6.7c-10-23.3-16.7-47.8-20-72.8
      C202.3,554.1,229,477,285.6,410.9c22.8-26.1,45.5-52.2,68.3-78.3c3.9-4.4,10.6-5,15-1.1l0,0c0.6,0.6,0.6,0.6,1.1,1.1
      c18.3,21.1,42.2,48.3,68.9,79.4c3.3,3.9,3.3,10,0,14.4c-36.7,43.9-75.5,90.5-110.5,135L328.4,561.9L328.4,561.9z M643.8,790.7
      L643.8,790.7c-21.1,55.5-62.8,88.9-121.6,98.3c-83.9,12.8-162.2-44.4-174.9-128.3c0-1.1,0-1.7-0.6-2.8
      c-6.7-47.2,7.8-88.9,38.3-124.4c35.5-41.7,113.9-138.3,115-140l0,0c1.7,1.7,85,105.5,116.1,142.2C655.5,681.9,665,734.6,643.8,790.7
      z M767.7,703.5L767.7,703.5c-0.6,1.7-1.7,3.9-2.2,5.6c-2.2,5.6-8.3,8.3-13.9,6.1c-3.3-1.7-6.1-4.4-6.7-8.3
      c-7.8-46.7-30-93.3-66.1-137.2l-0.6-0.6l-3.3-5l-2.2-2.8c-28.9-36.7-181.6-215.5-248.3-293.8c-3.3-3.9-3.3-10,0-14.4
      c22.2-24.4,44.4-48.9,66.1-73.9c3.9-4.4,10.6-4.4,15-0.6l0.6,0.6c10,10.6,19.4,21.1,28.9,32.2c60.5,67.8,121.6,134.4,180.5,202.7
      C789.9,500.3,807.1,599.1,767.7,703.5z"/>
  </g>
  
  <!-- Second SVG (ModelContextProtocol) -->
  <g transform="translate(1050, 50) scale(40)">
    <title>ModelContextProtocol</title>
    <path fill="black" d="M15.688 2.343a2.588 2.588 0 00-3.61 0l-9.626 9.44a.863.863 0 01-1.203 0 .823.823 0 010-1.18l9.626-9.44a4.313 4.313 0 016.016 0 4.116 4.116 0 011.204 3.54 4.3 4.3 0 013.609 1.18l.05.05a4.115 4.115 0 010 5.9l-8.706 8.537a.274.274 0 000 .393l1.788 1.754a.823.823 0 010 1.18.863.863 0 01-1.203 0l-1.788-1.753a1.92 1.92 0 010-2.754l8.706-8.538a2.47 2.47 0 000-3.54l-.05-.049a2.588 2.588 0 00-3.607-.003l-7.172 7.034-.002.002-.098.097a.863.863 0 01-1.204 0 .823.823 0 010-1.18l7.273-7.133a2.47 2.47 0 00-.003-3.537z"></path>
    <path fill="black" d="M14.485 4.703a.823.823 0 000-1.18.863.863 0 00-1.204 0l-7.119 6.982a4.115 4.115 0 000 5.9 4.314 4.314 0 006.016 0l7.12-6.982a.823.823 0 000-1.18.863.863 0 00-1.204 0l-7.119 6.982a2.588 2.588 0 01-3.61 0 2.47 2.47 0 010-3.54l7.12-6.982z"></path>
  </g>
</svg>